<svg width="482" height="483" viewBox="0 0 482 483" fill="none" xmlns="http://www.w3.org/2000/svg">
<line x1="349.622" y1="241.004" x2="376.777" y2="241.004" stroke="#5B5B61" stroke-width="6.78873" stroke-linecap="round"/>
<line x1="400.535" y1="241.004" x2="478.605" y2="241.004" stroke="#5B5B61" stroke-width="6.78873" stroke-linecap="round"/>
<line x1="241.001" y1="132.382" x2="241.001" y2="105.227" stroke="#5B5B61" stroke-width="6.78873" stroke-linecap="round"/>
<line x1="241.001" y1="81.465" x2="241.001" y2="3.39462" stroke="#5B5B61" stroke-width="6.78873" stroke-linecap="round"/>
<line x1="242.087" y1="350.219" x2="242.087" y2="377.374" stroke="#5B5B61" stroke-width="6.78873" stroke-linecap="round"/>
<line x1="242.087" y1="401.136" x2="242.087" y2="479.206" stroke="#5B5B61" stroke-width="6.78873" stroke-linecap="round"/>
<line x1="315.675" y1="165.888" x2="334.876" y2="146.687" stroke="#5B5B61" stroke-width="6.78873" stroke-linecap="round"/>
<line x1="351.678" y1="129.881" x2="406.882" y2="74.6772" stroke="#5B5B61" stroke-width="6.78873" stroke-linecap="round"/>
<line x1="167.415" y1="316.719" x2="148.214" y2="335.921" stroke="#5B5B61" stroke-width="6.78873" stroke-linecap="round"/>
<line x1="131.412" y1="352.726" x2="76.208" y2="407.93" stroke="#5B5B61" stroke-width="6.78873" stroke-linecap="round"/>
<line x1="133.281" y1="134.683" x2="78.0766" y2="79.479" stroke="#5B5B61" stroke-width="6.78873" stroke-linecap="round"/>
<line x1="349.805" y1="347.92" x2="405.009" y2="403.124" stroke="#5B5B61" stroke-width="6.78873" stroke-linecap="round"/>
<line x1="132.378" y1="241" x2="105.223" y2="241" stroke="#5B5B61" stroke-width="6.78873" stroke-linecap="round"/>
<line x1="81.464" y1="241" x2="3.39365" y2="241" stroke="#5B5B61" stroke-width="6.78873" stroke-linecap="round"/>
<line x1="362.203" y1="213.681" x2="421.22" y2="197.868" stroke="#5B5B61" stroke-width="6.78873" stroke-linecap="round"/>
<line x1="120.883" y1="268.917" x2="61.8663" y2="284.731" stroke="#5B5B61" stroke-width="6.78873" stroke-linecap="round"/>
<line x1="300.86" y1="135.621" x2="331.409" y2="82.7076" stroke="#5B5B61" stroke-width="6.78873" stroke-linecap="round"/>
<line x1="182.233" y1="346.976" x2="151.683" y2="399.889" stroke="#5B5B61" stroke-width="6.78873" stroke-linecap="round"/>
<line x1="213.68" y1="127.667" x2="197.866" y2="68.65" stroke="#5B5B61" stroke-width="6.78873" stroke-linecap="round"/>
<line x1="269.394" y1="354.936" x2="285.207" y2="413.953" stroke="#5B5B61" stroke-width="6.78873" stroke-linecap="round"/>
<line x1="139.015" y1="184.538" x2="86.1017" y2="153.989" stroke="#5B5B61" stroke-width="6.78873" stroke-linecap="round"/>
<line x1="344.076" y1="298.058" x2="396.989" y2="328.608" stroke="#5B5B61" stroke-width="6.78873" stroke-linecap="round"/>
<line x1="337.281" y1="190.54" x2="375.496" y2="168.477" stroke="#5B5B61" stroke-width="6.78873" stroke-linecap="round"/>
<line x1="145.802" y1="292.058" x2="107.588" y2="314.122" stroke="#5B5B61" stroke-width="6.78873" stroke-linecap="round"/>
<line x1="265.756" y1="146.852" x2="277.177" y2="104.228" stroke="#5B5B61" stroke-width="6.78873" stroke-linecap="round"/>
<line x1="217.335" y1="335.747" x2="205.914" y2="378.37" stroke="#5B5B61" stroke-width="6.78873" stroke-linecap="round"/>
<line x1="193.935" y1="154.866" x2="171.871" y2="116.651" stroke="#5B5B61" stroke-width="6.78873" stroke-linecap="round"/>
<line x1="289.156" y1="327.741" x2="311.22" y2="365.956" stroke="#5B5B61" stroke-width="6.78873" stroke-linecap="round"/>
<line x1="146.851" y1="212.455" x2="104.227" y2="201.035" stroke="#5B5B61" stroke-width="6.78873" stroke-linecap="round"/>
<line x1="165.163" y1="166.562" x2="145.961" y2="147.361" stroke="#5B5B61" stroke-width="6.78873" stroke-linecap="round"/>
<line x1="313.689" y1="315.677" x2="332.89" y2="334.878" stroke="#5B5B61" stroke-width="6.78873" stroke-linecap="round"/>
<line x1="336.221" y1="270.15" x2="378.844" y2="281.57" stroke="#5B5B61" stroke-width="6.78873" stroke-linecap="round"/>
</svg>
